<svg xmlns="http://www.w3.org/2000/svg" viewBox="0 0 400 400">
  <!-- Space Background -->
  <defs>
    <radialGradient id="spaceGradient" cx="50%" cy="50%" r="50%">
      <stop offset="0%" style="stop-color:#1a1a3a"/>
      <stop offset="100%" style="stop-color:#000020"/>
    </radialGradient>
    <!-- Star Pattern -->
    <pattern id="stars" x="0" y="0" width="100" height="100" patternUnits="userSpaceOnUse">
      <circle cx="10" cy="10" r="0.5" fill="white" opacity="0.5"/>
      <circle cx="30" cy="40" r="0.3" fill="white" opacity="0.3"/>
      <circle cx="70" cy="30" r="0.4" fill="white" opacity="0.4"/>
      <circle cx="90" cy="80" r="0.2" fill="white" opacity="0.6"/>
      <circle cx="50" cy="60" r="0.3" fill="white" opacity="0.5"/>
    </pattern>
  </defs>

  <!-- Background with Stars -->
  <rect width="400" height="400" fill="url(#spaceGradient)"/>
  <rect width="400" height="400" fill="url(#stars)"/>

  <!-- QR Code Container -->
  <g transform="translate(0, 0) scale(1.7777)">
      <path d="M0 0 C11.55 0 23.1 0 35 0 C35 11.55 35 23.1 35 35 C23.45 35 11.9 35 0 35 C0 23.45 0 11.9 0 0 Z M5 5 C5 13.25 5 21.5 5 30 C13.25 30 21.5 30 30 30 C30 21.75 30 13.5 30 5 C21.75 5 13.5 5 5 5 Z " fill="#ffffff" opacity="0.4" transform="translate(20,20)"/>
      <path d="M0 0 C3.3 0 6.6 0 10 0 C10 1.65 10 3.3 10 5 C8.35 5 6.7 5 5 5 C5 8.3 5 11.6 5 15 C3.35 15 1.7 15 0 15 C0 10.05 0 5.1 0 0 Z " fill="#ffffff" opacity="0.4" transform="translate(60,20)"/>
      <path d="M0 0 C4.95 0 9.9 0 15 0 C15 3.3 15 6.6 15 10 C26.55 10 38.1 10 50 10 C50 13.3 50 16.6 50 20 C48.35 20 46.7 20 45 20 C45 18.35 45 16.7 45 15 C41.7 15 38.4 15 35 15 C35 16.65 35 18.3 35 20 C36.65 20 38.3 20 40 20 C40 21.65 40 23.3 40 25 C38.35 25 36.7 25 35 25 C35 26.65 35 28.3 35 30 C33.35 30 31.7 30 30 30 C30 28.35 30 26.7 30 25 C28.35 25 26.7 25 25 25 C25 26.65 25 28.3 25 30 C23.35 30 21.7 30 20 30 C20 31.65 20 33.3 20 35 C21.65 35 23.3 35 25 35 C25 36.65 25 38.3 25 40 C21.7 40 18.4 40 15 40 C15 41.65 15 43.3 15 45 C13.35 45 11.7 45 10 45 C10 43.35 10 41.7 10 40 C8.35 40 6.7 40 5 40 C5 35.05 5 30.1 5 25 C1.7 25 -1.6 25 -5 25 C-5 26.65 -5 28.3 -5 30 C-6.65 30 -8.3 30 -10 30 C-10 31.65 -10 33.3 -10 35 C-8.35 35 -6.7 35 -5 35 C-5 36.65 -5 38.3 -5 40 C-6.65 40 -8.3 40 -10 40 C-10 43.3 -10 46.6 -10 50 C-11.65 50 -13.3 50 -15 50 C-15 41.75 -15 33.5 -15 25 C-13.35 25 -11.7 25 -10 25 C-10 23.35 -10 21.7 -10 20 C-5.05 20 -0.1 20 5 20 C5 18.35 5 16.7 5 15 C1.7 15 -1.6 15 -5 15 C-5 11.7 -5 8.4 -5 5 C-3.35 5 -1.7 5 0 5 C0 3.35 0 1.7 0 0 Z M5 5 C5 8.3 5 11.6 5 15 C6.65 15 8.3 15 10 15 C10 11.7 10 8.4 10 5 C8.35 5 6.7 5 5 5 Z M15 15 C15 16.65 15 18.3 15 20 C16.65 20 18.3 20 20 20 C20 18.35 20 16.7 20 15 C18.35 15 16.7 15 15 15 Z M10 20 C10 21.65 10 23.3 10 25 C11.65 25 13.3 25 15 25 C15 23.35 15 21.7 15 20 C13.35 20 11.7 20 10 20 Z M20 20 C20 21.65 20 23.3 20 25 C21.65 25 23.3 25 25 25 C25 23.35 25 21.7 25 20 C23.35 20 21.7 20 20 20 Z M10 30 C10 31.65 10 33.3 10 35 C11.65 35 13.3 35 15 35 C15 33.35 15 31.7 15 30 C13.35 30 11.7 30 10 30 Z " fill="#ffffff" opacity="0.4" transform="translate(75,20)"/>
      <path d="M0 0 C3.3 0 6.6 0 10 0 C10 1.65 10 3.3 10 5 C6.7 5 3.4 5 0 5 C0 3.35 0 1.7 0 0 Z " fill="#ffffff" opacity="0.4" transform="translate(100,20)"/>
      <path d="M0 0 C3.3 0 6.6 0 10 0 C10 3.3 10 6.6 10 10 C11.65 10 13.3 10 15 10 C15 11.65 15 13.3 15 15 C16.65 15 18.3 15 20 15 C20 18.3 20 21.6 20 25 C24.95 25 29.9 25 35 25 C35 29.95 35 34.9 35 40 C33.35 40 31.7 40 30 40 C30 36.7 30 33.4 30 30 C28.35 30 26.7 30 25 30 C25 31.65 25 33.3 25 35 C23.35 35 21.7 35 20 35 C20 33.35 20 31.7 20 30 C18.35 30 16.7 30 15 30 C15 31.65 15 33.3 15 35 C13.35 35 11.7 35 10 35 C10 28.4 10 21.8 10 15 C8.35 15 6.7 15 5 15 C5 11.7 5 8.4 5 5 C3.35 5 1.7 5 0 5 C0 3.35 0 1.7 0 0 Z " fill="#ffffff" opacity="0.4" transform="translate(130,20)"/>
      <path d="M0 0 C1.65 0 3.3 0 5 0 C5 3.3 5 6.6 5 10 C1.7 10 -1.6 10 -5 10 C-5 8.35 -5 6.7 -5 5 C-3.35 5 -1.7 5 0 5 C0 3.35 0 1.7 0 0 Z " fill="#ffffff" opacity="0.4" transform="translate(160,20)"/>
      <path d="M0 0 C11.55 0 23.1 0 35 0 C35 11.55 35 23.1 35 35 C23.45 35 11.9 35 0 35 C0 23.45 0 11.9 0 0 Z M5 5 C5 13.25 5 21.5 5 30 C13.25 30 21.5 30 30 30 C30 21.75 30 13.5 30 5 C21.75 5 13.5 5 5 5 Z " fill="#ffffff" opacity="0.4" transform="translate(170,20)"/>
      <path d="M0 0 C1.65 0 3.3 0 5 0 C5 1.65 5 3.3 5 5 C3.35 5 1.7 5 0 5 C0 3.35 0 1.7 0 0 Z " fill="#ffffff" opacity="0.4" transform="translate(145,25)"/>
      <path d="M0 0 C4.95 0 9.9 0 15 0 C15 4.95 15 9.9 15 15 C10.05 15 5.1 15 0 15 C0 10.05 0 5.1 0 0 Z " fill="#ffffff" opacity="0.4" transform="translate(30,30)"/>
      <path d="M0 0 C1.65 0 3.3 0 5 0 C5 1.65 5 3.3 5 5 C3.35 5 1.7 5 0 5 C0 3.35 0 1.7 0 0 Z " fill="#ffffff" opacity="0.4" transform="translate(150,30)"/>
      <path d="M0 0 C4.95 0 9.9 0 15 0 C15 4.95 15 9.9 15 15 C10.05 15 5.1 15 0 15 C0 10.05 0 5.1 0 0 Z " fill="#ffffff" opacity="0.4" transform="translate(180,30)"/>
      <path d="M0 0 C1.65 0 3.3 0 5 0 C5 1.65 5 3.3 5 5 C3.35 5 1.7 5 0 5 C0 3.35 0 1.7 0 0 Z " fill="#ffffff" opacity="0.4" transform="translate(155,35)"/>
      <path d="M0 0 C3.3 0 6.6 0 10 0 C10 4.95 10 9.9 10 15 C8.35 15 6.7 15 5 15 C5 13.35 5 11.7 5 10 C3.35 10 1.7 10 0 10 C0 6.7 0 3.4 0 0 Z " fill="#ffffff" opacity="0.4" transform="translate(125,40)"/>
      <path d="M0 0 C1.65 0 3.3 0 5 0 C5 1.65 5 3.3 5 5 C3.35 5 1.7 5 0 5 C0 3.35 0 1.7 0 0 Z " fill="#ffffff" opacity="0.4" transform="translate(70,50)"/>
      <path d="M0 0 C1.65 0 3.3 0 5 0 C5 1.65 5 3.3 5 5 C3.35 5 1.7 5 0 5 C0 3.35 0 1.7 0 0 Z " fill="#ffffff" opacity="0.4" transform="translate(100,50)"/>
      <path d="M0 0 C1.65 0 3.3 0 5 0 C5 1.65 5 3.3 5 5 C3.35 5 1.7 5 0 5 C0 3.35 0 1.7 0 0 Z " fill="#ffffff" opacity="0.4" transform="translate(110,50)"/>
      <path d="M0 0 C1.65 0 3.3 0 5 0 C5 1.65 5 3.3 5 5 C3.35 5 1.7 5 0 5 C0 3.35 0 1.7 0 0 Z " fill="#ffffff" opacity="0.4" transform="translate(120,50)"/>
      <path d="M0 0 C1.65 0 3.3 0 5 0 C5 1.65 5 3.3 5 5 C6.65 5 8.3 5 10 5 C10 6.65 10 8.3 10 10 C11.65 10 13.3 10 15 10 C15 8.35 15 6.7 15 5 C16.65 5 18.3 5 20 5 C20 3.35 20 1.7 20 0 C21.65 0 23.3 0 25 0 C25 3.3 25 6.6 25 10 C28.3 10 31.6 10 35 10 C35 11.65 35 13.3 35 15 C31.7 15 28.4 15 25 15 C25 16.65 25 18.3 25 20 C23.35 20 21.7 20 20 20 C20 21.65 20 23.3 20 25 C21.65 25 23.3 25 25 25 C25 28.3 25 31.6 25 35 C23.35 35 21.7 35 20 35 C20 33.35 20 31.7 20 30 C18.35 30 16.7 30 15 30 C15 28.35 15 26.7 15 25 C13.35 25 11.7 25 10 25 C10 21.7 10 18.4 10 15 C8.35 15 6.7 15 5 15 C5 13.35 5 11.7 5 10 C3.35 10 1.7 10 0 10 C0 11.65 0 13.3 0 15 C-1.65 15 -3.3 15 -5 15 C-5 11.7 -5 8.4 -5 5 C-3.35 5 -1.7 5 0 5 C0 3.35 0 1.7 0 0 Z M15 10 C15 11.65 15 13.3 15 15 C16.65 15 18.3 15 20 15 C20 13.35 20 11.7 20 10 C18.35 10 16.7 10 15 10 Z " fill="#ffffff" opacity="0.4" transform="translate(105,55)"/>
      <path d="M0 0 C1.65 0 3.3 0 5 0 C5 1.65 5 3.3 5 5 C3.35 5 1.7 5 0 5 C0 3.35 0 1.7 0 0 Z " fill="#ffffff" opacity="0.4" transform="translate(145,55)"/>
      <path d="M0 0 C4.95 0 9.9 0 15 0 C15 1.65 15 3.3 15 5 C16.65 5 18.3 5 20 5 C20 6.65 20 8.3 20 10 C23.3 10 26.6 10 30 10 C30 11.65 30 13.3 30 15 C23.4 15 16.8 15 10 15 C10 11.7 10 8.4 10 5 C8.35 5 6.7 5 5 5 C5 8.3 5 11.6 5 15 C3.35 15 1.7 15 0 15 C0 10.05 0 5.1 0 0 Z " fill="#ffffff" opacity="0.4" transform="translate(30,60)"/>
      <path d="M0 0 C1.65 0 3.3 0 5 0 C5 1.65 5 3.3 5 5 C3.35 5 1.7 5 0 5 C0 3.35 0 1.7 0 0 Z " fill="#ffffff" opacity="0.4" transform="translate(50,60)"/>
      <path d="M0 0 C1.65 0 3.3 0 5 0 C5 4.95 5 9.9 5 15 C6.65 15 8.3 15 10 15 C10 13.35 10 11.7 10 10 C13.3 10 16.6 10 20 10 C20 13.3 20 16.6 20 20 C16.7 20 13.4 20 10 20 C10 21.65 10 23.3 10 25 C11.65 25 13.3 25 15 25 C15 28.3 15 31.6 15 35 C16.65 35 18.3 35 20 35 C20 31.7 20 28.4 20 25 C21.65 25 23.3 25 25 25 C25 21.7 25 18.4 25 15 C26.65 15 28.3 15 30 15 C30 21.6 30 28.2 30 35 C28.35 35 26.7 35 25 35 C25 36.65 25 38.3 25 40 C23.35 40 21.7 40 20 40 C20 41.65 20 43.3 20 45 C18.35 45 16.7 45 15 45 C15 43.35 15 41.7 15 40 C13.35 40 11.7 40 10 40 C10 36.7 10 33.4 10 30 C8.35 30 6.7 30 5 30 C5 26.7 5 23.4 5 20 C3.35 20 1.7 20 0 20 C0 13.4 0 6.8 0 0 Z " fill="#ffffff" opacity="0.4" transform="translate(70,60)"/>
      <path d="M0 0 C1.65 0 3.3 0 5 0 C5 1.65 5 3.3 5 5 C3.35 5 1.7 5 0 5 C0 3.35 0 1.7 0 0 Z " fill="#ffffff" opacity="0.4" transform="translate(150,60)"/>
      <path d="M0 0 C4.95 0 9.9 0 15 0 C15 1.65 15 3.3 15 5 C11.7 5 8.4 5 5 5 C5 6.65 5 8.3 5 10 C8.3 10 11.6 10 15 10 C15 13.3 15 16.6 15 20 C13.35 20 11.7 20 10 20 C10 18.35 10 16.7 10 15 C6.7 15 3.4 15 0 15 C0 13.35 0 11.7 0 10 C-1.65 10 -3.3 10 -5 10 C-5 8.35 -5 6.7 -5 5 C-3.35 5 -1.7 5 0 5 C0 3.35 0 1.7 0 0 Z " fill="#ffffff" opacity="0.4" transform="translate(190,60)"/>
      <path d="M0 0 C1.65 0 3.3 0 5 0 C5 1.65 5 3.3 5 5 C3.35 5 1.7 5 0 5 C0 3.35 0 1.7 0 0 Z " fill="#ffffff" opacity="0.4" transform="translate(20,65)"/>
      <path d="M0 0 C1.65 0 3.3 0 5 0 C5 1.65 5 3.3 5 5 C3.35 5 1.7 5 0 5 C0 3.35 0 1.7 0 0 Z " fill="#ffffff" opacity="0.4" transform="translate(90,65)"/>
      <path d="M0 0 C4.95 0 9.9 0 15 0 C15 6.6 15 13.2 15 20 C13.35 20 11.7 20 10 20 C10 21.65 10 23.3 10 25 C8.35 25 6.7 25 5 25 C5 28.3 5 31.6 5 35 C1.7 35 -1.6 35 -5 35 C-5 36.65 -5 38.3 -5 40 C-6.65 40 -8.3 40 -10 40 C-10 41.65 -10 43.3 -10 45 C-11.65 45 -13.3 45 -15 45 C-15 46.65 -15 48.3 -15 50 C-11.7 50 -8.4 50 -5 50 C-5 51.65 -5 53.3 -5 55 C-6.65 55 -8.3 55 -10 55 C-10 59.95 -10 64.9 -10 70 C-11.65 70 -13.3 70 -15 70 C-15 68.35 -15 66.7 -15 65 C-16.65 65 -18.3 65 -20 65 C-20 63.35 -20 61.7 -20 60 C-21.65 60 -23.3 60 -25 60 C-25 61.65 -25 63.3 -25 65 C-26.65 65 -28.3 65 -30 65 C-30 61.7 -30 58.4 -30 55 C-33.3 55 -36.6 55 -40 55 C-40 53.35 -40 51.7 -40 50 C-38.35 50 -36.7 50 -35 50 C-35 48.35 -35 46.7 -35 45 C-30.05 45 -25.1 45 -20 45 C-20 43.35 -20 41.7 -20 40 C-18.35 40 -16.7 40 -15 40 C-15 38.35 -15 36.7 -15 35 C-16.65 35 -18.3 35 -20 35 C-20 33.35 -20 31.7 -20 30 C-21.65 30 -23.3 30 -25 30 C-25 23.4 -25 16.8 -25 10 C-23.35 10 -21.7 10 -20 10 C-20 8.35 -20 6.7 -20 5 C-18.35 5 -16.7 5 -15 5 C-15 6.65 -15 8.3 -15 10 C-13.35 10 -11.7 10 -10 10 C-10 8.35 -10 6.7 -10 5 C-8.35 5 -6.7 5 -5 5 C-5 9.95 -5 14.9 -5 20 C-1.7 20 1.6 20 5 20 C5 16.7 5 13.4 5 10 C6.65 10 8.3 10 10 10 C10 8.35 10 6.7 10 5 C6.7 5 3.4 5 0 5 C0 3.35 0 1.7 0 0 Z M-20 15 C-20 16.65 -20 18.3 -20 20 C-18.35 20 -16.7 20 -15 20 C-15 18.35 -15 16.7 -15 15 C-16.65 15 -18.3 15 -20 15 Z M-15 25 C-15 26.65 -15 28.3 -15 30 C-11.7 30 -8.4 30 -5 30 C-5 28.35 -5 26.7 -5 25 C-8.3 25 -11.6 25 -15 25 Z M-25 50 C-25 51.65 -25 53.3 -25 55 C-23.35 55 -21.7 55 -20 55 C-20 53.35 -20 51.7 -20 50 C-21.65 50 -23.3 50 -25 50 Z M-20 55 C-20 56.65 -20 58.3 -20 60 C-18.35 60 -16.7 60 -15 60 C-15 58.35 -15 56.7 -15 55 C-16.65 55 -18.3 55 -20 55 Z " fill="#ffffff" opacity="0.4" transform="translate(165,60)"/>
      <path d="M0 0 C1.65 0 3.3 0 5 0 C5 1.65 5 3.3 5 5 C3.35 5 1.7 5 0 5 C0 3.35 0 1.7 0 0 Z " fill="#ffffff" opacity="0.4" transform="translate(105,70)"/>
      <path d="M0 0 C3.3 0 6.6 0 10 0 C10 1.65 10 3.3 10 5 C8.35 5 6.7 5 5 5 C5 6.65 5 8.3 5 10 C3.35 10 1.7 10 0 10 C0 6.7 0 3.4 0 0 Z " fill="#ffffff" opacity="0.4" transform="translate(20,75)"/>
      <path d="M0 0 C1.65 0 3.3 0 5 0 C5 1.65 5 3.3 5 5 C3.35 5 1.7 5 0 5 C0 3.35 0 1.7 0 0 Z " fill="#ffffff" opacity="0.4" transform="translate(35,75)"/>
      <path d="M0 0 C1.65 0 3.3 0 5 0 C5 1.65 5 3.3 5 5 C3.35 5 1.7 5 0 5 C0 3.35 0 1.7 0 0 Z " fill="#ffffff" opacity="0.4" transform="translate(60,75)"/>
      <path d="M0 0 C1.65 0 3.3 0 5 0 C5 1.65 5 3.3 5 5 C3.35 5 1.7 5 0 5 C0 3.35 0 1.7 0 0 Z " fill="#ffffff" opacity="0.4" transform="translate(130,75)"/>
      <path d="M0 0 C1.65 0 3.3 0 5 0 C5 1.65 5 3.3 5 5 C8.3 5 11.6 5 15 5 C15 6.65 15 8.3 15 10 C13.35 10 11.7 10 10 10 C10 11.65 10 13.3 10 15 C8.35 15 6.7 15 5 15 C5 16.65 5 18.3 5 20 C1.7 20 -1.6 20 -5 20 C-5 18.35 -5 16.7 -5 15 C-3.35 15 -1.7 15 0 15 C0 13.35 0 11.7 0 10 C-1.65 10 -3.3 10 -5 10 C-5 8.35 -5 6.7 -5 5 C-3.35 5 -1.7 5 0 5 C0 3.35 0 1.7 0 0 Z " fill="#ffffff" opacity="0.4" transform="translate(185,75)"/>
      <path d="M0 0 C1.65 0 3.3 0 5 0 C5 1.65 5 3.3 5 5 C3.35 5 1.7 5 0 5 C0 3.35 0 1.7 0 0 Z " fill="#ffffff" opacity="0.4" transform="translate(50,80)"/>
      <path d="M0 0 C1.65 0 3.3 0 5 0 C5 3.3 5 6.6 5 10 C3.35 10 1.7 10 0 10 C0 6.7 0 3.4 0 0 Z " fill="#ffffff" opacity="0.4" transform="translate(65,80)"/>
      <path d="M0 0 C1.65 0 3.3 0 5 0 C5 1.65 5 3.3 5 5 C8.3 5 11.6 5 15 5 C15 6.65 15 8.3 15 10 C13.35 10 11.7 10 10 10 C10 13.3 10 16.6 10 20 C11.65 20 13.3 20 15 20 C15 26.6 15 33.2 15 40 C18.3 40 21.6 40 25 40 C25 43.3 25 46.6 25 50 C26.65 50 28.3 50 30 50 C30 51.65 30 53.3 30 55 C28.35 55 26.7 55 25 55 C25 56.65 25 58.3 25 60 C21.7 60 18.4 60 15 60 C15 58.35 15 56.7 15 55 C13.35 55 11.7 55 10 55 C10 53.35 10 51.7 10 50 C6.7 50 3.4 50 0 50 C0 48.35 0 46.7 0 45 C-4.95 45 -9.9 45 -15 45 C-15 48.3 -15 51.6 -15 55 C-13.35 55 -11.7 55 -10 55 C-10 56.65 -10 58.3 -10 60 C-8.35 60 -6.7 60 -5 60 C-5 63.3 -5 66.6 -5 70 C-1.7 70 1.6 70 5 70 C5 71.65 5 73.3 5 75 C3.35 75 1.7 75 0 75 C0 76.65 0 78.3 0 80 C-1.65 80 -3.3 80 -5 80 C-5 81.65 -5 83.3 -5 85 C-6.65 85 -8.3 85 -10 85 C-10 91.6 -10 98.2 -10 105 C-11.65 105 -13.3 105 -15 105 C-15 103.35 -15 101.7 -15 100 C-18.3 100 -21.6 100 -25 100 C-25 101.65 -25 103.3 -25 105 C-26.65 105 -28.3 105 -30 105 C-30 100.05 -30 95.1 -30 90 C-28.35 90 -26.7 90 -25 90 C-25 88.35 -25 86.7 -25 85 C-23.35 85 -21.7 85 -20 85 C-20 86.65 -20 88.3 -20 90 C-18.35 90 -16.7 90 -15 90 C-15 86.7 -15 83.4 -15 80 C-16.65 80 -18.3 80 -20 80 C-20 78.35 -20 76.7 -20 75 C-18.35 75 -16.7 75 -15 75 C-15 73.35 -15 71.7 -15 70 C-13.35 70 -11.7 70 -10 70 C-10 68.35 -10 66.7 -10 65 C-11.65 65 -13.3 65 -15 65 C-15 63.35 -15 61.7 -15 60 C-16.65 60 -18.3 60 -20 60 C-20 61.65 -20 63.3 -20 65 C-21.65 65 -23.3 65 -25 65 C-25 63.35 -25 61.7 -25 60 C-26.65 60 -28.3 60 -30 60 C-30 58.35 -30 56.7 -30 55 C-28.35 55 -26.7 55 -25 55 C-25 53.35 -25 51.7 -25 50 C-23.35 50 -21.7 50 -20 50 C-20 48.35 -20 46.7 -20 45 C-21.65 45 -23.3 45 -25 45 C-25 41.7 -25 38.4 -25 35 C-23.35 35 -21.7 35 -20 35 C-20 36.65 -20 38.3 -20 40 C-11.75 40 -3.5 40 5 40 C5 41.65 5 43.3 5 45 C6.65 45 8.3 45 10 45 C10 40.05 10 35.1 10 30 C8.35 30 6.7 30 5 30 C5 28.35 5 26.7 5 25 C3.35 25 1.7 25 0 25 C0 23.35 0 21.7 0 20 C1.65 20 3.3 20 5 20 C5 16.7 5 13.4 5 10 C3.35 10 1.7 10 0 10 C0 6.7 0 3.4 0 0 Z M15 45 C15 46.65 15 48.3 15 50 C16.65 50 18.3 50 20 50 C20 48.35 20 46.7 20 45 C18.35 45 16.7 45 15 45 Z M-10 75 C-10 76.65 -10 78.3 -10 80 C-8.35 80 -6.7 80 -5 80 C-5 78.35 -5 76.7 -5 75 C-6.65 75 -8.3 75 -10 75 Z " fill="#ffffff" opacity="0.4" transform="translate(105,80)"/>
      <path d="M0 0 C1.65 0 3.3 0 5 0 C5 1.65 5 3.3 5 5 C9.95 5 14.9 5 20 5 C20 6.65 20 8.3 20 10 C18.35 10 16.7 10 15 10 C15 18.25 15 26.5 15 35 C13.35 35 11.7 35 10 35 C10 30.05 10 25.1 10 20 C8.35 20 6.7 20 5 20 C5 16.7 5 13.4 5 10 C3.35 10 1.7 10 0 10 C0 11.65 0 13.3 0 15 C-1.65 15 -3.3 15 -5 15 C-5 11.7 -5 8.4 -5 5 C-3.35 5 -1.7 5 0 5 C0 3.35 0 1.7 0 0 Z " fill="#ffffff" opacity="0.4" transform="translate(25,85)"/>
      <path d="M0 0 C1.65 0 3.3 0 5 0 C5 1.65 5 3.3 5 5 C3.35 5 1.7 5 0 5 C0 3.35 0 1.7 0 0 Z " fill="#ffffff" opacity="0.4" transform="translate(45,85)"/>
      <path d="M0 0 C1.65 0 3.3 0 5 0 C5 1.65 5 3.3 5 5 C3.35 5 1.7 5 0 5 C0 3.35 0 1.7 0 0 Z " fill="#ffffff" opacity="0.4" transform="translate(55,85)"/>
      <path d="M0 0 C1.65 0 3.3 0 5 0 C5 1.65 5 3.3 5 5 C3.35 5 1.7 5 0 5 C0 3.35 0 1.7 0 0 Z " fill="#ffffff" opacity="0.4" transform="translate(175,85)"/>
      <path d="M0 0 C1.65 0 3.3 0 5 0 C5 1.65 5 3.3 5 5 C3.35 5 1.7 5 0 5 C0 3.35 0 1.7 0 0 Z " fill="#ffffff" opacity="0.4" transform="translate(50,90)"/>
      <path d="M0 0 C1.65 0 3.3 0 5 0 C5 1.65 5 3.3 5 5 C3.35 5 1.7 5 0 5 C0 3.35 0 1.7 0 0 Z " fill="#ffffff" opacity="0.4" transform="translate(70,90)"/>
      <path d="M0 0 C1.65 0 3.3 0 5 0 C5 1.65 5 3.3 5 5 C6.65 5 8.3 5 10 5 C10 6.65 10 8.3 10 10 C6.7 10 3.4 10 0 10 C0 6.7 0 3.4 0 0 Z " fill="#ffffff" opacity="0.4" transform="translate(120,90)"/>
      <path d="M0 0 C1.65 0 3.3 0 5 0 C5 1.65 5 3.3 5 5 C6.65 5 8.3 5 10 5 C10 6.65 10 8.3 10 10 C6.7 10 3.4 10 0 10 C0 6.7 0 3.4 0 0 Z " fill="#ffffff" opacity="0.4" transform="translate(135,90)"/>
      <path d="M0 0 C3.3 0 6.6 0 10 0 C10 3.3 10 6.6 10 10 C8.35 10 6.7 10 5 10 C5 8.35 5 6.7 5 5 C3.35 5 1.7 5 0 5 C0 3.35 0 1.7 0 0 Z " fill="#ffffff" opacity="0.4" transform="translate(195,90)"/>
      <path d="M0 0 C1.65 0 3.3 0 5 0 C5 1.65 5 3.3 5 5 C3.35 5 1.7 5 0 5 C0 3.35 0 1.7 0 0 Z " fill="#ffffff" opacity="0.4" transform="translate(60,95)"/>
      <path d="M0 0 C1.65 0 3.3 0 5 0 C5 3.3 5 6.6 5 10 C3.35 10 1.7 10 0 10 C0 11.65 0 13.3 0 15 C-3.3 15 -6.6 15 -10 15 C-10 13.35 -10 11.7 -10 10 C-8.35 10 -6.7 10 -5 10 C-5 8.35 -5 6.7 -5 5 C-3.35 5 -1.7 5 0 5 C0 3.35 0 1.7 0 0 Z " fill="#ffffff" opacity="0.4" transform="translate(170,95)"/>
      <path d="M0 0 C4.95 0 9.9 0 15 0 C15 1.65 15 3.3 15 5 C10.05 5 5.1 5 0 5 C0 3.35 0 1.7 0 0 Z " fill="#ffffff" opacity="0.4" transform="translate(45,100)"/>
      <path d="M0 0 C1.65 0 3.3 0 5 0 C5 1.65 5 3.3 5 5 C6.65 5 8.3 5 10 5 C10 6.65 10 8.3 10 10 C11.65 10 13.3 10 15 10 C15 11.65 15 13.3 15 15 C10.05 15 5.1 15 0 15 C0 13.35 0 11.7 0 10 C-1.65 10 -3.3 10 -5 10 C-5 8.35 -5 6.7 -5 5 C-3.35 5 -1.7 5 0 5 C0 3.35 0 1.7 0 0 Z " fill="#ffffff" opacity="0.4" transform="translate(65,100)"/>
      <path d="M0 0 C1.65 0 3.3 0 5 0 C5 1.65 5 3.3 5 5 C3.35 5 1.7 5 0 5 C0 3.35 0 1.7 0 0 Z " fill="#ffffff" opacity="0.4" transform="translate(75,100)"/>
      <path d="M0 0 C1.65 0 3.3 0 5 0 C5 1.65 5 3.3 5 5 C3.35 5 1.7 5 0 5 C0 3.35 0 1.7 0 0 Z " fill="#ffffff" opacity="0.4" transform="translate(180,100)"/>
      <path d="M0 0 C3.3 0 6.6 0 10 0 C10 1.65 10 3.3 10 5 C6.7 5 3.4 5 0 5 C0 3.35 0 1.7 0 0 Z " fill="#ffffff" opacity="0.4" transform="translate(190,100)"/>
      <path d="M0 0 C3.3 0 6.6 0 10 0 C10 1.65 10 3.3 10 5 C8.35 5 6.7 5 5 5 C5 8.3 5 11.6 5 15 C3.35 15 1.7 15 0 15 C0 10.05 0 5.1 0 0 Z " fill="#ffffff" opacity="0.4" transform="translate(20,105)"/>
      <path d="M0 0 C1.65 0 3.3 0 5 0 C5 1.65 5 3.3 5 5 C6.65 5 8.3 5 10 5 C10 6.65 10 8.3 10 10 C6.7 10 3.4 10 0 10 C0 6.7 0 3.4 0 0 Z " fill="#ffffff" opacity="0.4" transform="translate(100,105)"/>
      <path d="M0 0 C1.65 0 3.3 0 5 0 C5 1.65 5 3.3 5 5 C3.35 5 1.7 5 0 5 C0 3.35 0 1.7 0 0 Z " fill="#ffffff" opacity="0.4" transform="translate(175,105)"/>
      <path d="M0 0 C3.3 0 6.6 0 10 0 C10 1.65 10 3.3 10 5 C13.3 5 16.6 5 20 5 C20 6.65 20 8.3 20 10 C18.35 10 16.7 10 15 10 C15 11.65 15 13.3 15 15 C8.4 15 1.8 15 -5 15 C-5 13.35 -5 11.7 -5 10 C-3.35 10 -1.7 10 0 10 C0 6.7 0 3.4 0 0 Z M5 5 C5 6.65 5 8.3 5 10 C6.65 10 8.3 10 10 10 C10 8.35 10 6.7 10 5 C8.35 5 6.7 5 5 5 Z " fill="#ffffff" opacity="0.4" transform="translate(45,110)"/>
      <path d="M0 0 C3.3 0 6.6 0 10 0 C10 1.65 10 3.3 10 5 C6.7 5 3.4 5 0 5 C0 3.35 0 1.7 0 0 Z " fill="#ffffff" opacity="0.4" transform="translate(85,110)"/>
      <path d="M0 0 C1.65 0 3.3 0 5 0 C5 1.65 5 3.3 5 5 C6.65 5 8.3 5 10 5 C10 6.65 10 8.3 10 10 C14.95 10 19.9 10 25 10 C25 13.3 25 16.6 25 20 C21.7 20 18.4 20 15 20 C15 18.35 15 16.7 15 15 C13.35 15 11.7 15 10 15 C10 16.65 10 18.3 10 20 C8.35 20 6.7 20 5 20 C5 18.35 5 16.7 5 15 C3.35 15 1.7 15 0 15 C0 16.65 0 18.3 0 20 C-1.65 20 -3.3 20 -5 20 C-5 16.7 -5 13.4 -5 10 C-6.65 10 -8.3 10 -10 10 C-10 8.35 -10 6.7 -10 5 C-6.7 5 -3.4 5 0 5 C0 3.35 0 1.7 0 0 Z " fill="#ffffff" opacity="0.4" transform="translate(170,110)"/>
      <path d="M0 0 C3.3 0 6.6 0 10 0 C10 3.3 10 6.6 10 10 C8.35 10 6.7 10 5 10 C5 8.35 5 6.7 5 5 C3.35 5 1.7 5 0 5 C0 3.35 0 1.7 0 0 Z " fill="#ffffff" opacity="0.4" transform="translate(195,110)"/>
      <path d="M0 0 C1.65 0 3.3 0 5 0 C5 1.65 5 3.3 5 5 C3.35 5 1.7 5 0 5 C0 3.35 0 1.7 0 0 Z " fill="#ffffff" opacity="0.4" transform="translate(30,120)"/>
      <path d="M0 0 C1.65 0 3.3 0 5 0 C5 1.65 5 3.3 5 5 C3.35 5 1.7 5 0 5 C0 3.35 0 1.7 0 0 Z " fill="#ffffff" opacity="0.4" transform="translate(65,120)"/>
      <path d="M0 0 C1.65 0 3.3 0 5 0 C5 1.65 5 3.3 5 5 C3.35 5 1.7 5 0 5 C0 3.35 0 1.7 0 0 Z " fill="#ffffff" opacity="0.4" transform="translate(35,125)"/>
      <path d="M0 0 C1.65 0 3.3 0 5 0 C5 1.65 5 3.3 5 5 C3.35 5 1.7 5 0 5 C0 3.35 0 1.7 0 0 Z " fill="#ffffff" opacity="0.4" transform="translate(60,125)"/>
      <path d="M0 0 C3.3 0 6.6 0 10 0 C10 1.65 10 3.3 10 5 C8.35 5 6.7 5 5 5 C5 6.65 5 8.3 5 10 C3.35 10 1.7 10 0 10 C0 6.7 0 3.4 0 0 Z " fill="#ffffff" opacity="0.4" transform="translate(70,125)"/>
      <path d="M0 0 C1.65 0 3.3 0 5 0 C5 1.65 5 3.3 5 5 C3.35 5 1.7 5 0 5 C0 3.35 0 1.7 0 0 Z " fill="#ffffff" opacity="0.4" transform="translate(140,125)"/>
      <path d="M0 0 C3.3 0 6.6 0 10 0 C10 3.3 10 6.6 10 10 C11.65 10 13.3 10 15 10 C15 11.65 15 13.3 15 15 C16.65 15 18.3 15 20 15 C20 18.3 20 21.6 20 25 C21.65 25 23.3 25 25 25 C25 26.65 25 28.3 25 30 C23.35 30 21.7 30 20 30 C20 31.65 20 33.3 20 35 C18.35 35 16.7 35 15 35 C15 31.7 15 28.4 15 25 C13.35 25 11.7 25 10 25 C10 23.35 10 21.7 10 20 C8.35 20 6.7 20 5 20 C5 24.95 5 29.9 5 35 C3.35 35 1.7 35 0 35 C0 28.4 0 21.8 0 15 C1.65 15 3.3 15 5 15 C5 11.7 5 8.4 5 5 C3.35 5 1.7 5 0 5 C0 3.35 0 1.7 0 0 Z " fill="#ffffff" opacity="0.4" transform="translate(20,130)"/>
      <path d="M0 0 C1.65 0 3.3 0 5 0 C5 1.65 5 3.3 5 5 C3.35 5 1.7 5 0 5 C0 3.35 0 1.7 0 0 Z " fill="#ffffff" opacity="0.4" transform="translate(40,130)"/>
      <path d="M0 0 C1.65 0 3.3 0 5 0 C5 1.65 5 3.3 5 5 C3.35 5 1.7 5 0 5 C0 3.35 0 1.7 0 0 Z " fill="#ffffff" opacity="0.4" transform="translate(50,130)"/>
      <path d="M0 0 C1.65 0 3.3 0 5 0 C5 1.65 5 3.3 5 5 C8.3 5 11.6 5 15 5 C15 6.65 15 8.3 15 10 C16.65 10 18.3 10 20 10 C20 11.65 20 13.3 20 15 C21.65 15 23.3 15 25 15 C25 18.3 25 21.6 25 25 C23.35 25 21.7 25 20 25 C20 23.35 20 21.7 20 20 C16.7 20 13.4 20 10 20 C10 16.7 10 13.4 10 10 C6.7 10 3.4 10 0 10 C0 6.7 0 3.4 0 0 Z " fill="#ffffff" opacity="0.4" transform="translate(100,130)"/>
      <path d="M0 0 C1.65 0 3.3 0 5 0 C5 1.65 5 3.3 5 5 C3.35 5 1.7 5 0 5 C0 3.35 0 1.7 0 0 Z " fill="#ffffff" opacity="0.4" transform="translate(155,130)"/>
      <path d="M0 0 C1.65 0 3.3 0 5 0 C5 1.65 5 3.3 5 5 C3.35 5 1.7 5 0 5 C0 3.35 0 1.7 0 0 Z " fill="#ffffff" opacity="0.4" transform="translate(170,130)"/>
      <path d="M0 0 C3.3 0 6.6 0 10 0 C10 1.65 10 3.3 10 5 C8.35 5 6.7 5 5 5 C5 6.65 5 8.3 5 10 C3.35 10 1.7 10 0 10 C0 6.7 0 3.4 0 0 Z " fill="#ffffff" opacity="0.4" transform="translate(195,130)"/>
      <path d="M0 0 C1.65 0 3.3 0 5 0 C5 1.65 5 3.3 5 5 C3.35 5 1.7 5 0 5 C0 3.35 0 1.7 0 0 Z " fill="#ffffff" opacity="0.4" transform="translate(35,135)"/>
      <path d="M0 0 C1.65 0 3.3 0 5 0 C5 1.65 5 3.3 5 5 C6.65 5 8.3 5 10 5 C10 3.35 10 1.7 10 0 C14.95 0 19.9 0 25 0 C25 1.65 25 3.3 25 5 C23.35 5 21.7 5 20 5 C20 6.65 20 8.3 20 10 C15.05 10 10.1 10 5 10 C5 11.65 5 13.3 5 15 C3.35 15 1.7 15 0 15 C0 13.35 0 11.7 0 10 C-1.65 10 -3.3 10 -5 10 C-5 8.35 -5 6.7 -5 5 C-3.35 5 -1.7 5 0 5 C0 3.35 0 1.7 0 0 Z " fill="#ffffff" opacity="0.4" transform="translate(45,135)"/>
      <path d="M0 0 C3.3 0 6.6 0 10 0 C10 1.65 10 3.3 10 5 C8.35 5 6.7 5 5 5 C5 6.65 5 8.3 5 10 C3.35 10 1.7 10 0 10 C0 11.65 0 13.3 0 15 C-1.65 15 -3.3 15 -5 15 C-5 11.7 -5 8.4 -5 5 C-3.35 5 -1.7 5 0 5 C0 3.35 0 1.7 0 0 Z " fill="#ffffff" opacity="0.4" transform="translate(135,135)"/>
      <path d="M0 0 C1.65 0 3.3 0 5 0 C5 1.65 5 3.3 5 5 C3.35 5 1.7 5 0 5 C0 3.35 0 1.7 0 0 Z " fill="#ffffff" opacity="0.4" transform="translate(150,135)"/>
      <path d="M0 0 C1.65 0 3.3 0 5 0 C5 1.65 5 3.3 5 5 C6.65 5 8.3 5 10 5 C10 6.65 10 8.3 10 10 C6.7 10 3.4 10 0 10 C0 13.3 0 16.6 0 20 C1.65 20 3.3 20 5 20 C5 21.65 5 23.3 5 25 C9.95 25 14.9 25 20 25 C20 28.3 20 31.6 20 35 C21.65 35 23.3 35 25 35 C25 36.65 25 38.3 25 40 C23.35 40 21.7 40 20 40 C20 44.95 20 49.9 20 55 C18.35 55 16.7 55 15 55 C15 56.65 15 58.3 15 60 C13.35 60 11.7 60 10 60 C10 58.35 10 56.7 10 55 C8.35 55 6.7 55 5 55 C5 56.65 5 58.3 5 60 C3.35 60 1.7 60 0 60 C0 61.65 0 63.3 0 65 C-1.65 65 -3.3 65 -5 65 C-5 66.65 -5 68.3 -5 70 C-18.2 70 -31.4 70 -45 70 C-45 68.35 -45 66.7 -45 65 C-43.35 65 -41.7 65 -40 65 C-40 63.35 -40 61.7 -40 60 C-36.7 60 -33.4 60 -30 60 C-30 58.35 -30 56.7 -30 55 C-26.7 55 -23.4 55 -20 55 C-20 56.65 -20 58.3 -20 60 C-21.65 60 -23.3 60 -25 60 C-25 61.65 -25 63.3 -25 65 C-20.05 65 -15.1 65 -10 65 C-10 63.35 -10 61.7 -10 60 C-11.65 60 -13.3 60 -15 60 C-15 58.35 -15 56.7 -15 55 C-13.35 55 -11.7 55 -10 55 C-10 51.7 -10 48.4 -10 45 C-8.35 45 -6.7 45 -5 45 C-5 41.7 -5 38.4 -5 35 C-6.65 35 -8.3 35 -10 35 C-10 33.35 -10 31.7 -10 30 C-11.65 30 -13.3 30 -15 30 C-15 31.65 -15 33.3 -15 35 C-16.65 35 -18.3 35 -20 35 C-20 31.7 -20 28.4 -20 25 C-18.35 25 -16.7 25 -15 25 C-15 23.35 -15 21.7 -15 20 C-13.35 20 -11.7 20 -10 20 C-10 18.35 -10 16.7 -10 15 C-8.35 15 -6.7 15 -5 15 C-5 11.7 -5 8.4 -5 5 C-3.35 5 -1.7 5 0 5 C0 3.35 0 1.7 0 0 Z M-5 20 C-5 21.65 -5 23.3 -5 25 C-3.35 25 -1.7 25 0 25 C0 23.35 0 21.7 0 20 C-1.65 20 -3.3 20 -5 20 Z M0 30 C0 34.95 0 39.9 0 45 C4.95 45 9.9 45 15 45 C15 40.05 15 35.1 15 30 C10.05 30 5.1 30 0 30 Z M-5 50 C-5 51.65 -5 53.3 -5 55 C-1.7 55 1.6 55 5 55 C5 53.35 5 51.7 5 50 C1.7 50 -1.6 50 -5 50 Z " fill="#ffffff" opacity="0.4" transform="translate(165,135)"/>
      <path d="M0 0 C1.65 0 3.3 0 5 0 C5 1.65 5 3.3 5 5 C3.35 5 1.7 5 0 5 C0 3.35 0 1.7 0 0 Z " fill="#ffffff" opacity="0.4" transform="translate(175,135)"/>
      <path d="M0 0 C4.95 0 9.9 0 15 0 C15 3.3 15 6.6 15 10 C13.35 10 11.7 10 10 10 C10 8.35 10 6.7 10 5 C6.7 5 3.4 5 0 5 C0 3.35 0 1.7 0 0 Z " fill="#ffffff" opacity="0.4" transform="translate(180,140)"/>
      <path d="M0 0 C1.65 0 3.3 0 5 0 C5 1.65 5 3.3 5 5 C3.35 5 1.7 5 0 5 C0 3.35 0 1.7 0 0 Z " fill="#ffffff" opacity="0.4" transform="translate(200,140)"/>
      <path d="M0 0 C3.3 0 6.6 0 10 0 C10 1.65 10 3.3 10 5 C8.35 5 6.7 5 5 5 C5 8.3 5 11.6 5 15 C8.3 15 11.6 15 15 15 C15 16.65 15 18.3 15 20 C10.05 20 5.1 20 0 20 C0 13.4 0 6.8 0 0 Z " fill="#ffffff" opacity="0.4" transform="translate(65,145)"/>
      <path d="M0 0 C1.65 0 3.3 0 5 0 C5 1.65 5 3.3 5 5 C3.35 5 1.7 5 0 5 C0 3.35 0 1.7 0 0 Z " fill="#ffffff" opacity="0.4" transform="translate(140,145)"/>
      <path d="M0 0 C1.65 0 3.3 0 5 0 C5 1.65 5 3.3 5 5 C3.35 5 1.7 5 0 5 C0 3.35 0 1.7 0 0 Z " fill="#ffffff" opacity="0.4" transform="translate(150,145)"/>
      <path d="M0 0 C1.65 0 3.3 0 5 0 C5 1.65 5 3.3 5 5 C3.35 5 1.7 5 0 5 C0 3.35 0 1.7 0 0 Z " fill="#ffffff" opacity="0.4" transform="translate(175,145)"/>
      <path d="M0 0 C1.65 0 3.3 0 5 0 C5 1.65 5 3.3 5 5 C3.35 5 1.7 5 0 5 C0 3.35 0 1.7 0 0 Z " fill="#ffffff" opacity="0.4" transform="translate(50,150)"/>
      <path d="M0 0 C3.3 0 6.6 0 10 0 C10 1.65 10 3.3 10 5 C6.7 5 3.4 5 0 5 C0 3.35 0 1.7 0 0 Z " fill="#ffffff" opacity="0.4" transform="translate(75,150)"/>
      <path d="M0 0 C1.65 0 3.3 0 5 0 C5 1.65 5 3.3 5 5 C3.35 5 1.7 5 0 5 C0 3.35 0 1.7 0 0 Z " fill="#ffffff" opacity="0.4" transform="translate(145,150)"/>
      <path d="M0 0 C1.65 0 3.3 0 5 0 C5 1.65 5 3.3 5 5 C3.35 5 1.7 5 0 5 C0 3.35 0 1.7 0 0 Z " fill="#ffffff" opacity="0.4" transform="translate(170,150)"/>
      <path d="M0 0 C1.65 0 3.3 0 5 0 C5 1.65 5 3.3 5 5 C3.35 5 1.7 5 0 5 C0 3.35 0 1.7 0 0 Z " fill="#ffffff" opacity="0.4" transform="translate(180,150)"/>
      <path d="M0 0 C3.3 0 6.6 0 10 0 C10 1.65 10 3.3 10 5 C8.35 5 6.7 5 5 5 C5 8.3 5 11.6 5 15 C1.7 15 -1.6 15 -5 15 C-5 13.35 -5 11.7 -5 10 C-3.35 10 -1.7 10 0 10 C0 6.7 0 3.4 0 0 Z " fill="#ffffff" opacity="0.4" transform="translate(195,150)"/>
      <path d="M0 0 C1.65 0 3.3 0 5 0 C5 1.65 5 3.3 5 5 C3.35 5 1.7 5 0 5 C0 3.35 0 1.7 0 0 Z " fill="#ffffff" opacity="0.4" transform="translate(55,155)"/>
      <path d="M0 0 C1.65 0 3.3 0 5 0 C5 3.3 5 6.6 5 10 C0.05 10 -4.9 10 -10 10 C-10 8.35 -10 6.7 -10 5 C-6.7 5 -3.4 5 0 5 C0 3.35 0 1.7 0 0 Z " fill="#ffffff" opacity="0.4" transform="translate(115,155)"/>
      <path d="M0 0 C1.65 0 3.3 0 5 0 C5 1.65 5 3.3 5 5 C3.35 5 1.7 5 0 5 C0 3.35 0 1.7 0 0 Z " fill="#ffffff" opacity="0.4" transform="translate(140,155)"/>
      <path d="M0 0 C1.65 0 3.3 0 5 0 C5 1.65 5 3.3 5 5 C3.35 5 1.7 5 0 5 C0 3.35 0 1.7 0 0 Z " fill="#ffffff" opacity="0.4" transform="translate(50,160)"/>
      <path d="M0 0 C1.65 0 3.3 0 5 0 C5 1.65 5 3.3 5 5 C3.35 5 1.7 5 0 5 C0 3.35 0 1.7 0 0 Z " fill="#ffffff" opacity="0.4" transform="translate(60,165)"/>
      <path d="M0 0 C4.95 0 9.9 0 15 0 C15 1.65 15 3.3 15 5 C13.35 5 11.7 5 10 5 C10 8.3 10 11.6 10 15 C6.7 15 3.4 15 0 15 C0 10.05 0 5.1 0 0 Z " fill="#ffffff" opacity="0.4" transform="translate(125,165)"/>
      <path d="M0 0 C11.55 0 23.1 0 35 0 C35 11.55 35 23.1 35 35 C23.45 35 11.9 35 0 35 C0 23.45 0 11.9 0 0 Z M5 5 C5 13.25 5 21.5 5 30 C13.25 30 21.5 30 30 30 C30 21.75 30 13.5 30 5 C21.75 5 13.5 5 5 5 Z " fill="#ffffff" opacity="0.4" transform="translate(20,170)"/>
      <path d="M0 0 C1.65 0 3.3 0 5 0 C5 3.3 5 6.6 5 10 C6.65 10 8.3 10 10 10 C10 11.65 10 13.3 10 15 C8.35 15 6.7 15 5 15 C5 16.65 5 18.3 5 20 C3.35 20 1.7 20 0 20 C0 13.4 0 6.8 0 0 Z " fill="#ffffff" opacity="0.4" transform="translate(100,170)"/>
      <path d="M0 0 C1.65 0 3.3 0 5 0 C5 1.65 5 3.3 5 5 C6.65 5 8.3 5 10 5 C10 6.65 10 8.3 10 10 C6.7 10 3.4 10 0 10 C0 6.7 0 3.4 0 0 Z " fill="#ffffff" opacity="0.4" transform="translate(110,170)"/>
      <path d="M0 0 C1.65 0 3.3 0 5 0 C5 3.3 5 6.6 5 10 C3.35 10 1.7 10 0 10 C0 6.7 0 3.4 0 0 Z " fill="#ffffff" opacity="0.4" transform="translate(150,170)"/>
      <path d="M0 0 C1.65 0 3.3 0 5 0 C5 1.65 5 3.3 5 5 C3.35 5 1.7 5 0 5 C0 3.35 0 1.7 0 0 Z " fill="#ffffff" opacity="0.4" transform="translate(170,170)"/>
      <path d="M0 0 C3.3 0 6.6 0 10 0 C10 4.95 10 9.9 10 15 C8.35 15 6.7 15 5 15 C5 13.35 5 11.7 5 10 C3.35 10 1.7 10 0 10 C0 6.7 0 3.4 0 0 Z " fill="#ffffff" opacity="0.4" transform="translate(195,170)"/>
      <path d="M0 0 C1.65 0 3.3 0 5 0 C5 4.95 5 9.9 5 15 C3.35 15 1.7 15 0 15 C0 16.65 0 18.3 0 20 C-1.65 20 -3.3 20 -5 20 C-5 15.05 -5 10.1 -5 5 C-3.35 5 -1.7 5 0 5 C0 3.35 0 1.7 0 0 Z " fill="#ffffff" opacity="0.4" transform="translate(65,175)"/>
      <path d="M0 0 C1.65 0 3.3 0 5 0 C5 1.65 5 3.3 5 5 C6.65 5 8.3 5 10 5 C10 6.65 10 8.3 10 10 C6.7 10 3.4 10 0 10 C0 6.7 0 3.4 0 0 Z " fill="#ffffff" opacity="0.4" transform="translate(140,175)"/>
      <path d="M0 0 C4.95 0 9.9 0 15 0 C15 4.95 15 9.9 15 15 C10.05 15 5.1 15 0 15 C0 10.05 0 5.1 0 0 Z " fill="#ffffff" opacity="0.4" transform="translate(30,180)"/>
      <path d="M0 0 C1.65 0 3.3 0 5 0 C5 1.65 5 3.3 5 5 C3.35 5 1.7 5 0 5 C0 3.35 0 1.7 0 0 Z " fill="#ffffff" opacity="0.4" transform="translate(120,180)"/>
      <path d="M0 0 C1.65 0 3.3 0 5 0 C5 4.95 5 9.9 5 15 C1.7 15 -1.6 15 -5 15 C-5 13.35 -5 11.7 -5 10 C-3.35 10 -1.7 10 0 10 C0 6.7 0 3.4 0 0 Z " fill="#ffffff" opacity="0.4" transform="translate(190,180)"/>
      <path d="M0 0 C1.65 0 3.3 0 5 0 C5 1.65 5 3.3 5 5 C8.3 5 11.6 5 15 5 C15 6.65 15 8.3 15 10 C18.3 10 21.6 10 25 10 C25 8.35 25 6.7 25 5 C26.65 5 28.3 5 30 5 C30 3.35 30 1.7 30 0 C31.65 0 33.3 0 35 0 C35 3.3 35 6.6 35 10 C33.35 10 31.7 10 30 10 C30 11.65 30 13.3 30 15 C31.65 15 33.3 15 35 15 C35 16.65 35 18.3 35 20 C31.7 20 28.4 20 25 20 C25 18.35 25 16.7 25 15 C23.35 15 21.7 15 20 15 C20 16.65 20 18.3 20 20 C18.35 20 16.7 20 15 20 C15 18.35 15 16.7 15 15 C11.7 15 8.4 15 5 15 C5 13.35 5 11.7 5 10 C3.35 10 1.7 10 0 10 C0 6.7 0 3.4 0 0 Z " fill="#ffffff" opacity="0.4" transform="translate(80,185)"/>
      <path d="M0 0 C3.3 0 6.6 0 10 0 C10 1.65 10 3.3 10 5 C6.7 5 3.4 5 0 5 C0 3.35 0 1.7 0 0 Z " fill="#ffffff" opacity="0.4" transform="translate(125,185)"/>
      <path d="M0 0 C1.65 0 3.3 0 5 0 C5 3.3 5 6.6 5 10 C3.35 10 1.7 10 0 10 C0 11.65 0 13.3 0 15 C-1.65 15 -3.3 15 -5 15 C-5 11.7 -5 8.4 -5 5 C-3.35 5 -1.7 5 0 5 C0 3.35 0 1.7 0 0 Z " fill="#ffffff" opacity="0.4" transform="translate(70,190)"/>
      <path d="M0 0 C1.65 0 3.3 0 5 0 C5 1.65 5 3.3 5 5 C3.35 5 1.7 5 0 5 C0 3.35 0 1.7 0 0 Z " fill="#ffffff" opacity="0.4" transform="translate(120,190)"/>
      <path d="M0 0 C1.65 0 3.3 0 5 0 C5 4.95 5 9.9 5 15 C-1.6 15 -8.2 15 -15 15 C-15 13.35 -15 11.7 -15 10 C-10.05 10 -5.1 10 0 10 C0 6.7 0 3.4 0 0 Z " fill="#ffffff" opacity="0.4" transform="translate(200,190)"/>
      <path d="M0 0 C1.65 0 3.3 0 5 0 C5 1.65 5 3.3 5 5 C3.35 5 1.7 5 0 5 C0 3.35 0 1.7 0 0 Z " fill="#ffffff" opacity="0.4" transform="translate(180,195)"/>
      <path d="M0 0 C3.3 0 6.6 0 10 0 C10 1.65 10 3.3 10 5 C6.7 5 3.4 5 0 5 C0 3.35 0 1.7 0 0 Z " fill="#ffffff" opacity="0.4" transform="translate(165,200)"/>
    </g>
      
    <g>
        <g>
            <circle cx="35" cy="35" r="15" fill="#00f2ff" opacity="0.5">
                <animate attributeName="opacity" values="0.5;0.8;0.5" dur="2s" repeatCount="indefinite"/>
            </circle>
            <circle cx="265" cy="35" r="15" fill="#00f2ff" opacity="0.5">
                <animate attributeName="opacity" values="0.5;0.8;0.5" dur="2s" repeatCount="indefinite" begin="0.7s"/>
            </circle>
            <circle cx="35" cy="265" r="15" fill="#00f2ff" opacity="0.5">
                <animate attributeName="opacity" values="0.5;0.8;0.5" dur="2s" repeatCount="indefinite" begin="1.4s"/>
            </circle>
        </g>
    </g>

    <!-- LIBRAXIS AI Text -->
    <text x="200" y="380" text-anchor="middle" fill="#4a90e2"
          font-family="Monaco, mono" font-size="20" font-weight="light">
        libraxis.ai
    </text>

    <!-- Orbiting Elements -->
    <g>
        <circle cx="200" cy="200" r="160" fill="none" stroke="#4a90e2"
                stroke-width="1" stroke-dasharray="4,4"/>
        <circle cx="340" cy="200" r="8" fill="#00f2ff">
            <animateTransform
                attributeName="transform"
                type="rotate"
                from="0 200 200"
                to="360 200 200"
                dur="20s"
                repeatCount="indefinite"/>
        </circle>
    </g>

    <!-- Additional Particle Effects -->
    <g>
        <circle cx="200" cy="200" r="3" fill="#00f2ff" opacity="0.8">
            <animate attributeName="r" values="2;4;2" dur="3s" repeatCount="indefinite"/>
            <animate attributeName="opacity" values="0.8;0.3;0.8" dur="3s" repeatCount="indefinite"/>
        </circle>
    </g>
</svg>
